<?xml version="1.0" encoding="utf-8"?>
<!-- Generator: Adobe Illustrator 25.3.1, SVG Export Plug-In . SVG Version: 6.00 Build 0)  -->
<svg version="1.1" id="Layer_1" xmlns="http://www.w3.org/2000/svg" xmlns:xlink="http://www.w3.org/1999/xlink" x="0px" y="0px"
	 viewBox="0 0 255 105" style="enable-background:new 0 0 255 105;" xml:space="preserve">
<style type="text/css">
	.st0{fill:#995DB5;}
	.st1{opacity:0.2;enable-background:new    ;}
	.st2{opacity:0.15;enable-background:new    ;}
	.st3{fill:#F7941F;}
	.st4{opacity:0.25;fill:#FFFFFF;enable-background:new    ;}
	.st5{fill:#1E1E1E;}
</style>
<g id="f5310eed-ef69-4366-b1f5-cce8e56923d1">
	<path class="st0" d="M46,103.8c17.8-0.6,35.4-2.4,53.1-3.8c38.4,2.2,76.8,3.3,115.3,3.5c0.5,0,0.9-1.3,1.1-3.1
		c6.8,0.6,13.7,1.3,20.5,2c4,0.5,9.1,2,13.1,1.2c3-0.6,3.5-2.9,3.7-5.5c0.1-1.7,1.1-8.3-1-9.3c-0.4-0.2-0.7-0.3-1.1-0.5
		c0.4-3.2,0.2-8.1-0.8-9.1c1-0.2,2.1-0.3,3.1-0.6c1.8-0.4,1.8-9.3,0.5-11.8c0.6-3.4,0.8-9.8-0.9-10.1l-0.6-0.1
		c0.7-0.7,1.3-1.7,1.5-2.7c0.9-3.8,1.3-9.5-1.2-13.1c0.8-3.1,0.7-10.6-0.8-11l-4.7-1.3c-0.1,0-0.3,0.6-0.5,1.6
		c-33.1,1.9-66.1,1.3-99.2,0c-35-1.3-70.1-2.8-105.1-0.7c-9.4,0.6-9.1,1.4-18.5,2.2c-6.7,0.6-14.4-2-18.8,3.4
		c-1.4,1.7-1.4,14,0.5,15.2c1.6,1.1,3.3,1.9,5.1,2.6c-1.3-0.1-2-0.5-6.4-0.2C2.4,52.9,2.3,66.5,4,66.6h0.5c-1,1.1-2.1,7.6-1.4,10.6
		c-0.8,1.9-0.9,4.2-0.9,6.2c-0.1,2.3-0.1,5.1,0.7,7.5c-0.3,0.5-0.5,0.9-0.7,1.4c-0.5,1.2-1.4,11.4,0.6,11.5
		C20.4,104.2,28.4,104.4,46,103.8z M109.2,79.1h7.3c0,0.1,0,0.1,0,0.2C114,79.3,111.6,79.2,109.2,79.1z M10.2,79.6
		c-0.2,0.3-0.4,0.7-0.6,1C9,80.2,8.5,79.8,8,79.3C8.7,79.4,9.5,79.5,10.2,79.6z"/>
	<path class="st1" d="M248.2,31.1c-8.1,1.1-16.5,0.8-24.7,0.7c-5.7,0-11.3,0-17,0c-14.2-0.1-28.3-0.2-42.5-0.2
		c-13.2-0.1-26.4-0.2-39.7-0.1c-14.7,0.1-29.3,0.8-43.9,0.7c-24-0.3-48-1.2-72-1.2c-2.2,0-4.2,2.8-4,4.9c1.7,21-0.5,42,0.7,63
		c0.1,1.6,1.3,2.3,2.8,1.6c1.6-1,2.6-2.7,2.6-4.6c-1.1-19.3,0.6-38.8-0.4-58.1c20.2,0.1,40.4,0.8,60.6,1.1
		c16.1,0.3,32.2-0.3,48.3-0.5c27.2-0.4,54.4,0.1,81.6,0.3c6.2,0,12.3,0,18.5,0c9.3,0.1,18.8,0.4,28-0.8
		C249.8,37.5,252.1,30.6,248.2,31.1z"/>
	<path class="st2" d="M245.7,74.4c-0.1-9.3,0.1-18.6,0-27.9c0-1.7-1.4-2.3-2.8-1.6c-1.6,0.8-2.7,2.9-2.7,4.6c0.1,8.2,0,16.4,0,24.6
		c0,4.1,0.4,8.2,0.6,12.3c0.1,1.1,0.1,2.2,0.1,3.3c0,0.4-0.1,0.9-0.2,1.3h-0.1c-0.6,0.3-1.3,0.4-2,0.5c-1.9,0.1-3.9-0.2-5.9-0.1
		c-2.1,0.1-4.2,0.2-6.4,0.4c-4,0.4-8.1,0.3-12.2-0.1c-8.1-0.7-16.2-0.7-24.3-0.9c-2.9-0.1-5.8,6.8-2.6,6.9c9,0.2,18,0.5,27,1.2
		c4.7,0.4,9.2-0.3,13.9-0.5c4.1-0.2,8.3,0.7,12.1-1c4-1.7,5.5-4.7,5.8-8.8C246.6,83.8,245.8,79.1,245.7,74.4z"/>
	<path class="st2" d="M177.9,78.7c-0.3-3.6-0.2-7.2-0.2-10.8c0-7.1,0.1-14.2,0-21.4c0-1.7-1.4-2.3-2.8-1.6c-1.6,0.8-2.7,2.9-2.6,4.6
		c0.1,11.8-0.4,23.7,0.5,35.5c0.1,1.4,0.2,2.8,0.2,4.2c0,0.5,0,1-0.1,1.5c-0.5,0.3-1.1,0.6-1.7,0.7c-0.7,0.1-1.4,0-2.1,0
		c-3.7-0.2-7.4-0.1-11.1,0c-6.3,0.2-11.7,0.8-17.6,0.7c-7.3,0-14.6-0.3-21.9-0.6c-9.5-0.3-18.9-0.5-28.4-0.8
		c-2.9-0.1-5.8,6.8-2.6,6.9c16.8,0.4,33.7,1.3,50.5,1.4c6.6,0,13.1-0.7,19.7-0.8c3.6-0.1,7.2,0.2,10.7,0.1c2.2-0.1,4.3-0.9,6-2.1
		c2.5-1.7,3.5-4,3.7-6.9C178.5,85.7,178.2,82.3,177.9,78.7z M173.8,90.4c0,0,0.1,0,0.1,0H173.8z"/>
	<path class="st2" d="M78.1,85.8c0-4.1-0.7-8.2-0.7-12.3c-0.1-9,0.1-18,0-27c0-1.7-1.4-2.3-2.8-1.6c-1.6,0.8-2.7,2.9-2.7,4.6
		c0.1,9.1-0.1,18.3,0,27.4c0.1,4.7,0.9,9.3,0.6,14c-0.5,0.3-1.1,0.5-1.7,0.6c-1.3,0.2-2.7-0.2-4.1-0.1c-2.7,0.2-5.2,0.8-7.9,0.8
		c-3.6,0-7.3-0.3-10.9-0.5c-8.5-0.6-17-0.6-25.5-0.8c-2.9-0.1-5.8,6.8-2.6,6.9c7.6,0.2,15.2,0.2,22.8,0.7c5.9,0.4,11.9,1.1,17.9,0.5
		c2.2-0.2,4.1-0.7,6.3-0.5c2.9,0.2,5.8-0.7,8.1-2.5C78,93.3,78.1,89.4,78.1,85.8z"/>
	<path class="st3" d="M15.8,44.5c0.1-1,2.2-3,3.4-3c0.8,0,48.6-0.4,51.6,0.4c0.6,0.2,2.1,2.1,2.2,2.6s0.4,44.6,0.3,46.1
		c0,0.7-1.1,3.3-5.5,3.2c-2.1,0-45.3,0.5-47.4,0.5c-3,0-4.6-3.2-4.7-4.5S15.7,45.5,15.8,44.5z"/>
	<path class="st3" d="M173.7,44.5c-0.1-1-2.6-2.9-3.4-2.9c-2.2-0.1-80.3-0.1-82.4,0c-0.9,0-3.4,1.2-3.6,1.7
		c-0.6,1.1-0.6,2.3-0.6,3.4c0,0.8-0.3,42.4-0.2,43.9c0,0.7,2.2,3.3,4,3.4c2.1,0.1,75,0.4,76.2,0.5c2.1,0.1,7.4-0.5,8-0.8
		c1.4-0.8,1.9-2.5,1.9-3.7S173.8,45.5,173.7,44.5z"/>
	<path class="st3" d="M238.4,41.2c1,0.1,2.6,1.7,3.1,2.9c0.1,0.3,0.2,46.1-0.2,46.9c-0.3,0.6-1.1,2.4-1.6,2.7
		c-1.1,0.6-52.3,1.2-52.8,0.7c-1.1-1-2.7-3.6-2.7-5.3c-0.1-2.1-0.9-40.7-0.5-42.8c0.2-1.2,0.6-2.3,1-3.5c0.8-1.4,2.2-1.6,3.4-1.6
		S237.4,41.1,238.4,41.2z"/>
	<path class="st4" d="M240.1,42.1c-9,0.6-17.9,1-26.9,0.3c-4.6-0.3-9.2-0.7-13.8-0.9c-2.1-0.1-4.3-0.1-6.4,0
		c-1.8,0.1-3.9-0.1-5.5,0.7c-3.6,1.7-4.2,5.9-2.8,9.1c0.1,0.1,0.1,0.2,0.1,0.4c-0.1,0.3-0.1,0.5-0.1,0.8c-0.2,6.8-0.7,13.7-0.6,20.5
		c0.1,3.5,0.8,6.9,0.8,10.4c0,3.1-0.3,6.1,0.7,9c0.9,2.6,3.8,0.4,4.6-1.1c1.8-3.4,1.3-6.8,1.6-10.5c0.3-4.2,0.8-8.4,0.9-12.6
		c0-4.2-0.2-8.3-0.8-12.5c-0.2-1.9-0.5-3.8-0.9-5.7c-0.1-0.6-0.3-1.1-0.4-1.7c0.8,0,1.6,0,2.4,0c2,0,3.9,0,5.9,0.1
		c4.4,0.2,8.9,0.6,13.3,0.9c8.5,0.5,16.9,0.1,25.4-0.4c1.8-0.1,3.1-1.6,3.7-3.2C241.5,44.8,241.9,41.9,240.1,42.1z"/>
	<path class="st4" d="M170.6,43.2c-1.5-1.4-4.3-1.1-6.1-1.3c-2.6-0.2-5.2-0.3-7.8-0.3c-5.2-0.1-10.5,0-15.7,0.3
		c-0.5,0-1,0.2-1.4,0.4c-3.2-0.3-6.5-0.5-9.7-0.6c-11.6-0.6-23.3-0.5-34.9,1c-0.7-0.1-1.3-0.2-2-0.3c-2.4-0.3-4.6-0.6-6.5,1.2
		s-2.3,4-2.2,6.4c0.1,3,0.2,5.9,0.3,8.9c0.1,5.6,0.2,11.2,0.1,16.8c-0.1,5.2-0.7,10.7,1.1,15.7c1.3,3.6,6.2-1.8,5.2-4.5
		c-1.1-3.1-1.1-6.2-1-9.4c0.1-3.6,0.2-7.2,0.2-10.8s0-7.3-0.1-10.9c0-1.7-0.1-3.3-0.2-5c0-0.3,0-0.7-0.1-1c0.9-0.1,1.8-0.3,2.7-0.4
		c1.8,0.3,3.5,0.7,5.3,1.1c1,0.3,2.2-0.7,3-2c16.7-1.3,33.4,0,50,1.8c4.7,0.5,9.7,1.6,14.4,1c2.2-0.3,4-1.1,5.2-3
		C171.4,46.9,172.1,44.6,170.6,43.2z"/>
	<path class="st4" d="M71,44c0.1-1-0.3-1.8-1.5-1.9c-9.5-1.2-19.1,0.5-28.7,0.3c-4.9-0.1-9.8-0.5-14.7-0.4c-2.1,0.1-5-0.2-6.9,0.9
		c-1.8,1-2.7,3.1-2.9,5.1c-0.5,4.8-0.5,9.8-0.7,14.6s-0.4,9.6-0.3,14.5c0.1,4.1,0,8.7,1.2,12.7c0.8,2.8,3.3,6.9,6.5,4.1
		c1.3-1.2,2.3-3.1,1.9-4.8c0-0.1,0-0.2-0.1-0.3c-0.3-1.1-1.2-1.3-2-1c-0.6-0.7-1-2.2-1.2-2.7c-0.3-1.5-0.6-3.1-0.6-4.6
		c-0.3-3.8-0.3-7.7-0.3-11.6s0.2-7.7,0.4-11.6c0.1-1.8,0.2-3.6,0.2-5.4c0-1,0.1-2,0.1-2.9l0,0c3.1-0.3,6.5,0.1,9.4,0.2
		c4.1,0.2,8.2,0.4,12.2,0.3c1.8,0,3.6-0.1,5.4-0.2c0.1,0,0.2,0,0.4,0l7.7,0c3.9,0.2,7.7,0.8,11.5,1.8C70.9,51.4,74,45.1,71,44z"/>
	<path class="st5" d="M73.9,70.7c-0.1-7-0.3-13.9-0.3-20.9c0-2.7,0.9-6.8-2.1-8.2c-1.1-0.5-2.5-0.4-3.6-0.5
		c-1.8-0.1-3.6-0.1-5.4-0.2c-0.6,0-1.1,0-1.7,0H38.1H26.6c-2.7,0-6.5-0.6-9.1,0.6s-2,3.6-2,5.9c0,0,0,0.1,0,0.1
		C15.4,60,15.2,72.5,15,85c0,2.7-0.6,7.1,2,8.7c2.5,1.5,6.7,1.3,9.5,1.2c2.2-0.1,4.4,0,6.7,0.1c7.1,0.2,14.2-0.2,21.3-0.4l6.9-0.1
		c3.1-0.1,6.7,0.3,9.7-0.5c2.7-0.8,2.8-2.8,2.9-5.3C74.3,82.7,74,76.7,73.9,70.7z M72.9,87.8c-0.1,0.8,0.1,2-0.2,2.7
		c-0.8,2.5-2.2,2.5-4.1,2.6c-2.1,0.1-4.2,0.1-6.3,0.2c-1.9,0-3.7,0.1-5.6,0.1c-7.1,0.1-14.2,0.2-21.3,0.4c-3.3,0.1-6.5,0-9.8,0
		c-2,0.1-4.1-0.1-6.1-0.5c-2.5-0.6-3.2-2-3.3-4.4c-0.1-1.2-0.1-2.4-0.1-3.5c-0.1-12.6,0-25.2,0-37.8c0,0,0,0,0-0.1
		c0.1-2.3-0.4-4.6,2.6-5.3c1.8-0.5,4-0.2,5.9-0.2c1.2,0,2.4,0,3.5,0c2.5,0,5,0,7.4,0h22.1c1.5,0,3.1,0,4.6,0c3.2,0,9.7-1,10.2,3.3
		c0.2,1.3-0.1,2.7-0.1,4.1c0,5.9,0.2,11.8,0.2,17.6C72.8,73,73,79.2,73,85.3C73,86.1,72.9,87,72.9,87.8L72.9,87.8z"/>
	<path class="st5" d="M174.4,85.4c0-1.6,0-3.2-0.1-4.8c-0.1-10.2-0.2-20.4-0.3-30.6c0-0.8,0-1.6,0-2.4c0,0,0-0.1,0-0.1
		c-0.1-3.4,0-5.9-4-6.4c-2.8-0.3-5.7-0.2-8.5-0.2h-8.1c-10.9,0-21.8,0-32.7,0H95.5c-1.2,0-2.5,0-3.7,0.1c-3.2,0.1-7.6-0.6-8.4,3.4
		c-0.4,1.8,0,3.7-0.1,5.5c0,1.7-0.1,3.4-0.1,5.2C83,65,82.9,74.9,82.7,84.8c0,2.1-0.2,4.4,0.3,6.4c0.8,3.5,5.1,3.1,7.9,3.1
		c3.4,0.1,6.8,0.1,10.2,0.2c18.1,0.2,36.2,0.4,54.3,0.3c2.8,0,5.5,0.1,8.3,0.2c3,0.1,8.8,0.4,10.1-3.1
		C174.7,89.9,174.4,87.4,174.4,85.4z M173.4,86.2c0,1.2-0.1,2.4-0.2,3.7c-0.2,2.1-1.4,3.1-3.3,3.5c-2.6,0.6-5.3,0.5-7.9,0.4
		c-7-0.3-14.1,0.1-21.1,0l-30.5-0.3l-11.7-0.1h-2.1l-4.2-0.1c-2.8-0.1-7.3,0.7-8.4-2.7c-0.5-1.7-0.3-3.9-0.3-5.7l0.1-4.7
		C84,75,84,69.7,84.1,64.5c0.1-4.4,0.1-8.8,0.2-13.3c0-0.8,0-1.5,0-2.3c0-2.8-0.7-6.4,3.1-6.7c2.3-0.2,4.7-0.2,7-0.2
		c5.8-0.1,11.6,0,17.4,0c16.7,0,33.4,0.1,50.1,0c2,0,4.1-0.1,6.1,0c1.5,0,2.8,0,4,1c1.6,1.2,1.1,2.8,1.2,4.6c0,0,0,0,0,0.1
		c0.1,7.8,0,15.6,0.1,23.5c0,4.4,0,8.7,0,13.1C173.4,84.8,173.4,85.5,173.4,86.2L173.4,86.2z"/>
	<path class="st5" d="M242,54.6c0-0.7,0-1.4,0-2.1c0-2.9,0.6-6.8-0.6-9.6c-1.2-2.5-3.6-2-5.9-2c0,0-0.1,0-0.1,0
		c-13.1-0.1-26.2-0.3-39.4-0.4c-1.7,0-3.4-0.1-5.2,0c-2.3,0.1-5.3-0.2-6.7,2c-1.6,2.7-1.3,7-1.1,10c0.3,7,0.1,14.2,0.2,21.2
		c0.1,2.9,0.1,5.8,0.2,8.7s-0.1,5.7,0.3,8.5c0.3,2.4,1.2,3.8,3.6,4.1c5.9,0.7,12.1,0.2,18.1,0.1l24-0.3c1.8,0,3.6-0.1,5.3,0
		c2.1,0.1,4.8,0.4,6.2-1.5c0.7-0.9,0.7-2,0.8-3c0.1-2.1,0.2-4.1,0.2-6.2c0.1-6.3,0-12.7,0-19C242,61.6,242,58.1,242,54.6z M241,50.1
		c0,1.3,0,2.5,0,3.8v8.5c0,6.7,0,13.4,0,20.2c0,0.9,0,1.9-0.1,2.8c-0.1,1.7,0,3.5-0.2,5.2c-0.3,3.5-3.3,3.2-6,3.2
		c-1.5,0-2.9,0-4.4,0L209.3,94c-5.6,0.1-11.3,0.3-17,0.2c-1.3,0-2.7,0-4-0.2c-3.5-0.7-3.5-3-3.6-5.9c0-1.8-0.1-3.7-0.1-5.5
		c0-2.1-0.1-4.2-0.1-6.3c-0.1-6.3-0.7-12.8-0.4-19.1c0.1-2,0.1-4,0-6.1c-0.1-2,0.1-4.1,0.5-6.1c0.8-3.4,3.3-3.3,6.3-3.4
		c1.5-0.1,2.9,0,4.4,0c13.4,0.1,26.7-0.1,40.1,0h0.1c2.3,0.1,4.6-0.4,5.4,2.6C241.3,46.1,241,48.3,241,50.1z"/>
	<path class="st5" d="M252.2,88.7c-0.1-5.7-0.2-11.3-0.2-17c-0.1-10.7-0.5-21.4-0.4-32c0-2.9,0.8-6.7-2.5-8.2
		c-2.1-0.9-4.9-0.6-7.2-0.6c-1.5,0-3-0.1-4.5-0.1c-1.1,0-2.3,0-3.4,0h-20.1h-73.5h-80c-13.4,0-26.9,0.1-40.3,0
		c-3.1,0-6.2-0.1-9.3,0.1c-1.7,0.1-3.7,0.2-5,1.4c-1.7,1.5-1.1,3.6-1.2,5.6c0,0,0,0.1,0,0.1c0,9.5-0.1,19.1-0.2,28.6
		c0,6.3-0.1,12.7-0.1,19c0,3.8-0.4,8,0.3,11.7c0.7,4.2,6.1,4.1,9.5,4.3c4.3,0.2,8.6,0,12.9,0.1c1.2,0,2.4,0,3.7,0h21
		c25,0,49.9-0.1,74.9-0.2c25.9-0.1,51.9-0.1,77.8-0.2l24.7-0.1h6.1c4.4,0,9.1,0.4,13.4-0.5s3.8-5.1,3.9-8.7
		C252.3,90.9,252.2,89.8,252.2,88.7z M251.2,92.1c0,1-0.1,2-0.2,3c-0.2,2.3-0.5,4-2.9,4.6c-3.2,0.8-6.9,0.4-10.1,0.4
		c-1.4,0-2.8,0-4.1,0l-18.3,0l-70.4,0.2l-78,0.2c-13.4,0-26.8,0.6-40.2,0.2c-2.7-0.1-5.3-0.2-8-0.1c-3.1,0.2-6.2,0-9.3-0.4
		C8,100,6.1,99.5,5.5,97.7C5,96.1,5.1,94,5.1,92.3c-0.1-2.8,0-5.7,0-8.5c0-12.6,0.1-25.2,0.1-37.8c0-2.7,0-5.4,0-8.1c0,0,0,0,0-0.1
		c0.1-1.9-0.5-4.2,1.5-5.3c1.3-0.8,3.2-0.7,4.7-0.8c2.8-0.1,5.6,0,8.4,0h5.9c7.3,0,14.6,0,21.9,0l73.5,0h77.2c13,0,25.9-0.1,38.9,0
		c2.7,0,5.5,0.1,8.2,0.2c2.9,0.1,5.1,0.9,5.1,4.2c0,1.1-0.1,2.2-0.1,3.2c0,0.3,0,0.6,0,0.9c0,4.3,0.1,8.6,0.2,12.9
		c0.2,12,0.3,24,0.5,36.1C251.1,90.2,251.2,91.1,251.2,92.1z"/>
	<path class="st3" d="M17.2,17.4c0-1,0-2.1-0.4-3.1c-0.1-0.4-0.7-0.4-0.8,0c-0.2,1-0.1,2.1,0,3.1c0,1.2,0.1,2.3,0.1,3.5
		c0,0.3,0.3,0.6,0.6,0.6s0.6-0.3,0.6-0.6C17.3,19.8,17.3,18.6,17.2,17.4z"/>
	<path class="st3" d="M21.9,20.1c-0.9,1.1-1.1-2.5-1.1-2.5c0-0.6,0-1.1,0-1.7c0-0.3,0-0.6,0-1c0.4,0,0.8,0,1.3,0.1
		c1,0.2,1-1.3,0.2-1.2c-0.5,0-1,0-1.4,0c0-0.5,0-1.1-0.1-1.6c0-0.3-0.2-0.5-0.5-0.5c-0.3,0-0.5,0.2-0.5,0.5
		c-0.1,0.5-0.1,1.1-0.2,1.6c-0.5,0-0.9,0.1-1.3,0.4c-0.1,0.1-0.1,0.3,0,0.5c0,0,0,0,0.1,0.1c0.4,0.2,0.8,0.2,1.2,0.2
		c0,0.7,0,1.3,0,2c0,1.1-0.1,2.4,0.3,3.5c0.5,1.2,1.9,1.7,2.9,0.7C23.3,20.4,22.4,19.5,21.9,20.1z"/>
	<path class="st3" d="M30.6,17.7c0.3,0,0.6-0.3,0.6-0.6c0-0.1,0-0.2-0.1-0.3c-0.3-0.8-0.6-1.9-1.3-2.4c-0.7-0.4-1.5-0.6-2.3-0.4
		c-1.7,0.1-3.2,1-3.6,2.8c-0.3,1.6,0.4,3.2,1.8,4c1.6,1,3.4,0.7,5-0.2c0.8-0.4,0-1.6-0.7-1.1c-0.9,0.7-2.1,1-3.2,0.6
		c-0.9-0.3-1.5-1.1-1.8-2C26.8,18.1,28.7,18,30.6,17.7z M27.8,15.1c1.2,0.1,1.5,0.7,1.9,1.5c-1.6,0.2-3.2,0.2-4.8,0.4
		C25.2,15.7,26.5,15,27.8,15.1z"/>
	<path class="st3" d="M43.6,15.9c0-0.8-0.1-1.7-0.9-2.1c-1.2-0.7-3,0.1-4.1,1.2c-0.1-0.4-0.3-0.8-0.6-1c-1.3-0.9-2.9,0-3.9,1
		c0-0.3-0.1-0.5-0.2-0.7c-0.1-0.2-0.3-0.2-0.5-0.1c0,0-0.1,0.1-0.1,0.1c-0.4,0.9-0.3,1.9-0.3,2.9c0,1.2-0.1,2.5,0,3.7
		c0,0.3,0.3,0.6,0.6,0.6c0.3,0,0.6-0.3,0.6-0.6c0.1-1.2,0-2.5,0.1-3.7c0-0.3,0-0.6,0-0.9c0.5-0.7,1.2-1.1,2-1.3
		c1.3-0.3,1.3,0.2,1.3,1.3c0,1.6,0,3.2-0.1,4.8c-0.1,0.8,1.3,0.8,1.3,0c-0.1-1.5,0-3,0-4.5v-0.2c0.5-0.5,1-0.8,1.7-1.1
		c0.3-0.1,0.7-0.2,1-0.2c0.6,0,0.8,0.2,1,0.8c0.1,0.8,0.1,1.5,0,2.3c0,0.9-0.1,1.9-0.1,2.8s1.3,0.9,1.3,0
		C43.7,19.1,43.7,17.5,43.6,15.9z"/>
	<path class="st3" d="M51,14.6c-1.1-2.2-5.9-1.7-5.9,1c0,1.2,1.1,2,2.2,2.3c0.7,0.2,2.1,0,2.6,0.6c1.4,1.3-0.7,1.9-1.4,2
		c-0.9,0.2-1.8,0-2.3-0.9c-0.2-0.3-0.6-0.4-0.9-0.2c-0.3,0.2-0.4,0.6-0.2,0.9l0,0c0.9,1.5,2,1.8,3.7,1.5c1.3-0.2,3-1,3.1-2.5
		c0.1-1.4-1.4-2.1-2.5-2.4c-0.8-0.1-2.6,0-3-1s0.7-1.3,1.3-1.5c0.9-0.2,1.8,0,2.4,0.7C50.6,15.7,51.2,15.1,51,14.6L51,14.6z"/>
	<path class="st3" d="M66.2,35l-2,1.3c3.1-7.7,1.1-18.9-9-18.8c-0.3,0-0.5,0.3-0.4,0.6c0,0.2,0.1,0.3,0.3,0.4c3.3,0.7,6.3,1.5,8,4.6
		c2.1,3.8,1.6,8.5,0.1,12.4c-0.3-0.6-0.7-1.2-1.1-1.7c-0.2-0.2-0.5-0.2-0.7,0c-0.1,0.1-0.2,0.3-0.1,0.4c0.3,1.2,1.1,2.4,1.6,3.5
		c0.1,0.3,0.4,0.5,0.8,0.4c0,0,0.1,0,0.1-0.1c1-0.7,2-1.3,3.1-2C67.5,35.7,66.9,34.6,66.2,35z"/>
	<path class="st3" d="M117.2,34.4c-0.5,0.4-1,0.9-1.4,1.4c-0.6-5.6-1.8-10.9-5.8-15.1c-3.9-4-9.2-6.4-14.4-8.2
		c-6.4-2-13.1-2.8-19.7-2.2c-7.2,0.6-14.1,2.9-21,5c-0.2,0.1-0.3,0.4-0.2,0.7c0.1,0.2,0.3,0.3,0.5,0.3c6-1.5,11.9-3.5,18.1-4.4
		c6.3-0.9,13.6-0.6,19.8,1.2c5.1,1.5,10.3,3.6,14.4,7.1c4.8,4.1,6.6,9.8,7,15.9c-0.6-0.5-1.2-0.9-1.9-1.2c-0.5-0.2-0.7,0.5-0.4,0.8
		c0.7,0.9,1.8,1.5,2.7,2.3c0.3,0.2,0.6,0.2,0.9,0c0,0,0.1-0.1,0.1-0.1c0.7-0.9,1.5-1.8,2.4-2.6C118.7,34.7,117.8,33.9,117.2,34.4z"
		/>
	<path class="st3" d="M214.4,34.2c-0.5,0.5-0.9,1-1.2,1.5c-1.8-9.3-9.8-15.5-17.5-20.1c-9.9-5.9-21.3-9.1-32.5-11.4
		c-22.9-4.7-46.6-4.7-69.7-1.2c-13.2,2-26.4,5.1-39,9.9c-0.6,0.2-0.3,1.1,0.3,0.9C76.4,6.8,98.6,2.4,121.4,2
		c11.5-0.3,23.1,0.5,34.5,2.3c11.2,1.8,22.5,4.5,32.8,9.3c9.5,4.4,20.8,11.4,23,22.5c-0.7-0.6-1.5-1.1-2.4-1.5
		c-0.5-0.2-0.8,0.6-0.4,0.8c1.3,0.8,2.4,1.7,3.5,2.8c0.2,0.2,0.6,0.2,0.9,0c0,0,0.1-0.1,0.1-0.1c0.5-1,1.1-2,1.9-2.9
		C215.8,34.5,215,33.7,214.4,34.2z"/>
	<path class="st3" d="M16.6,11.3c-0.4-0.2-0.8,0-1,0.4c-0.1,0.2-0.1,0.4,0,0.5c0.1,0.3,0.3,0.5,0.6,0.5c0.1,0,0.3,0,0.4-0.1
		c0.4-0.2,0.5-0.7,0.3-1C16.8,11.5,16.7,11.4,16.6,11.3z"/>
</g>
</svg>
